<svg height="40" viewBox="0 0 40 40" width="40" xmlns="http://www.w3.org/2000/svg"><g fill="none"><path d="m40 20c0-11.04683333-8.9531667-20-20-20-11.04683333 0-20 8.95316667-20 20 0 9.9844167 7.3125 18.2578333 16.875 19.7578333v-13.9765833h-5.0781667v-5.78125h5.0781667v-4.40625c0-5.01175 2.9844167-7.78125 7.5546667-7.78125 2.1875 0 4.4765833.390625 4.4765833.390625v4.921875h-2.5234167c-2.4844166 0-3.2578333 1.543-3.2578333 3.125v3.75h5.5468333l-.8866666 5.78125h-4.6601667v13.9765833c9.5625-1.5 16.875-9.7734166 16.875-19.7578333z" fill="#1877f2"/><path d="m27.7851667 25.78125.8866666-5.78125h-5.5468333v-3.75c0-1.582.7734167-3.125 3.2578333-3.125h2.5234167v-4.921875s-2.2890833-.390625-4.4765833-.390625c-4.57025 0-7.5546667 2.7695-7.5546667 7.78125v4.40625h-5.0781667v5.78125h5.0781667v13.9765833c1.0195.1601667 2.0625.2421667 3.125.2421667s2.1055-.082 3.125-.2421667v-13.9765833z" fill="#fff"/></g></svg>