<svg width="512" height="512" xmlns="http://www.w3.org/2000/svg">

 <g>
  <title>background</title>
  <rect fill="none" id="canvas_background" height="402" width="582" y="-1" x="-1"/>
 </g>
 <g>
  <title>Layer 1</title>
  <path fill="#000" id="svg_1" d="m344.5,298c15,-23.600006 23.799988,-51.600006 23.799988,-81.699997c0,-84.100006 -68.099976,-152.300003 -152.099991,-152.300003c-84.099991,0 -152.199997,68.199997 -152.199997,152.300003c0,84.099991 68.100006,152.300003 152.100006,152.300003c30.5,0 58.899994,-9 82.699982,-24.399994l6.900024,-4.799988l108.599976,108.599976l33.700012,-34.299988l-108.5,-108.600006l5,-7.100006zm-43.100006,-166.800003c22.699982,22.699997 35.199982,52.900009 35.199982,85c0,32.100006 -12.5,62.300003 -35.199982,85.000015c-22.700012,22.699982 -52.900009,35.199982 -85,35.199982c-32.099991,0 -62.300003,-12.5 -85,-35.199982c-22.700005,-22.700012 -35.200005,-52.900009 -35.200005,-85.000015c0,-32.099991 12.5,-62.300003 35.200005,-85c22.699997,-22.699997 52.900009,-35.199997 85,-35.199997c32.100006,0 62.300018,12.5 85,35.199997z"/>
 </g>
</svg>