<svg height="20" viewBox="0 0 20 20" width="20" xmlns="http://www.w3.org/2000/svg"><g fill="#d71920" fill-rule="evenodd"><path d="m0 10c0-5.52283333 4.47716667-10 10-10 5.5228333 0 10 4.47716667 10 10 0 5.5228333-4.4771667 10-10 10-5.52283333 0-10-4.4771667-10-10zm10.0005-5.33333333c-1.44845833 0-1.63025.00633333-2.199125.03220833-.56779167.026-.95533333.11591667-1.29445833.24779167-.35079167.13620833-.64833334.31845833-.94479167.615-.29666667.29645833-.47891667.594-.61558333.94466666-.13220834.33925-.22220834.72691667-.24775 1.29445834-.02545834.56891666-.032125.75079166-.032125 2.19925003 0 1.4484583.00645833 1.6297083.03220833 2.1985833.026125.5677917.116.9553333.24779167 1.2944583.13633333.3507917.31854166.6483334.615125.9447917.29633333.2966667.593875.4793333.94445833.6155833.33933333.131875.727.22175 1.29466667.24775.56891666.0259167.75058333.03225 2.19891666.03225 1.44858337 0 1.62979167-.0063333 2.19870837-.03225.56775-.026.95575-.115875 1.295125-.24775.3506666-.13625.64775-.3189166.9440833-.6155833.2966667-.2964583.4789167-.594.6155833-.9446667.131125-.33925.221125-.7269166.2477917-1.2944583.0255417-.5689167.0322083-.75025.0322083-2.1987083 0-1.44845837-.0066666-1.63020837-.0322083-2.19912503-.0266667-.56779167-.1166667-.95533334-.2477917-1.29445834-.1366666-.35079166-.3189166-.64833333-.6155833-.94479166-.2966667-.29666667-.5933333-.478875-.9444167-.615-.3400416-.131875-.7277916-.22179167-1.2955833-.24779167-.5689167-.025875-.75-.03220833-2.19891667-.03220833z"/><path d="m9.52204167 5.62779167c.142-.00020834.30045833 0 .47845833 0 1.424 0 1.5927917.005125 2.155125.03066666.52.02379167.80225.11066667.99025.18366667.248875.09666667.4263333.21220833.612875.398875.1866667.18666667.30225.36445833.399125.613375.073.18775.16.47.1836667.99.0255416.56220833.031125.731125.031125 2.15445833 0 1.42333337-.0055834 1.59224997-.031125 2.15445837-.0237917.52-.1106667.80225-.1836667.99-.0966667.2489166-.2124583.426125-.399125.6127083-.1866667.1866667-.363875.3022083-.612875.398875-.1877917.0733333-.47025.16-.99025.1837917-.5622083.0255416-.731125.0310833-2.155125.0310833-1.424125 0-1.59291667-.0055417-2.155125-.0310833-.52-.024-.80225-.1109167-.99033333-.1839167-.24891667-.0966667-.42670834-.2122083-.613375-.398875-.18666667-.1866667-.30220834-.364-.39908334-.613-.073-.1877917-.16-.47-.18366666-.99-.02558334-.56225-.03066667-.731125-.03066667-2.155375s.00508333-1.59225.03066667-2.15445833c.02375-.52.11066666-.80225.18366666-.99025.09666667-.248875.21241667-.42666667.39908334-.61333334.18666666-.18666666.36445833-.30220833.613375-.399125.188-.07333333.47033333-.16.99033333-.183875.492-.02220833.68266667-.028875 1.67666667-.03zm3.32537503.88554166c-.3533334 0-.64.286375-.64.63979167 0 .35333333.2866666.64.64.64.3533333 0 .64-.28666667.64-.64s-.2866667-.63979167-.64-.63979167zm-2.8469167.74779167c-1.51258333 0-2.73891667 1.226375-2.73891667 2.7389167 0 1.5125833 1.22633334 2.738375 2.73891667 2.738375 1.5125833 0 2.7384583-1.2257917 2.7384583-2.738375 0-1.5125417-1.225875-2.7389167-2.7384583-2.7389167z"/><path d="m10.0005 8.22225c.9817917 0 1.7777917.79591667 1.7777917 1.7777917 0 .9817916-.796 1.7777916-1.7777917 1.7777916-.98191667 0-1.77779167-.796-1.77779167-1.7777916 0-.98187503.795875-1.7777917 1.77779167-1.7777917z"/></g></svg>