<svg height="20" viewBox="0 0 20 20" width="20" xmlns="http://www.w3.org/2000/svg"><path d="m10 0c5.5228333 0 10 4.47716667 10 10 0 5.5228333-4.4771667 10-10 10-5.52283333 0-10-4.4771667-10-10 0-5.52283333 4.47716667-10 10-10zm1.0645 6.094375c-.874375.31779167-1.42695833 1.13691667-1.364 2.03375l.021.34604167-.34975-.042375c-1.27304167-.16241667-2.38520833-.71325-3.32954167-1.63833334l-.461625-.459-.11891666.33895834c-.25183334.755625-.09095834 1.55358333.43366666 2.09025.27979167.296625.21683334.339-.26579166.16245833-.167875-.0565-.31479167-.098875-.32875-.07770833-.04895834.04945833.11891666.69204166.25179166.94629166.181875.35308337.55258334.69908337.95829167.90387497l.34275.1624167-.40570833.0070833c-.39170834 0-.40570834.0070417-.36370834.1553334.139875.459.69245834.9462916 1.308 1.158125l.43370834.1482916-.37775.2259584c-.55958334.324875-1.21708334.5084583-1.87458334.5225833-.31479166.0070833-.57358333.0352917-.57358333.0565 0 .070625.853375.4660833 1.35.6214167 1.489875.459 3.25958333.2612916 4.5885833-.5225417.9442917-.557875 1.8885834-1.6665833 2.32925-2.7399583.2378334-.57200003.4756667-1.61712503.4756667-2.11850003 0-.29235.0169763-.35590875.3059269-.64882238l.1067398-.10676096c.2308333-.226.4476666-.47316666.4896666-.54375.0699167-.13416666.0629584-.13416666-.2937916-.014125-.5945417.21183334-.6785.18358334-.3847084-.13416666.2168334-.226.475625-.63558334.475625-.755625 0-.02116667-.1049166.014125-.2238333.07766666-.125875.070625-.4056667.17654167-.6155417.240125l-.3777083.12004167-.34275-.23304167c-.1888333-.127125-.4546667-.26833333-.5945417-.31070833-.35675-.098875-.9023333-.08475-1.2240833.02825z" fill="#d71920"/></svg>