<svg height="20" viewBox="0 0 20 20" width="20" xmlns="http://www.w3.org/2000/svg"><g fill="#d71920" fill-rule="evenodd"><path d="m0 10c0-5.52283333 4.47716667-10 10-10 5.5228333 0 10 4.47716667 10 10 0 5.5228333-4.4771667 10-10 10-5.52283333 0-10-4.4771667-10-10zm15.1104167-2.4695c-.1226667-.47125-.484125-.84233333-.9430834-.96829167-.83175-.228875-4.1673333-.228875-4.1673333-.228875s-3.33558333 0-4.167375.228875c-.459.12595834-.82045833.49704167-.943125.96829167-.22283333.85408333-.22283333 2.6361667-.22283333 2.6361667s0 1.782.22283333 2.6361666c.12266667.47125.484125.8423334.943125.9683334.83179167.2288333 4.167375.2288333 4.167375.2288333s3.3355833 0 4.1673333-.2288333c.4589584-.126.8204167-.4970834.9430834-.9683334.2229166-.8541666.2229166-2.6361666.2229166-2.6361666s0-1.78208337-.2229166-2.6361667z"/><path d="m9.00004167 12v-3.33333333l2.66666663 1.66670833z"/></g></svg>